<mxfile host="app.diagrams.net" modified="2023-07-21T10:32:36.058Z" agent="Mozilla/5.0 (Windows NT 10.0; Win64; x64) AppleWebKit/537.36 (KHTML, like Gecko) Chrome/113.0.0.0 Safari/537.36 OPR/99.0.0.0" etag="qRY-zlBEb8x-BMPhBjq2" version="21.3.7" type="device">
  <diagram name="Page-1" id="uAUK1T7umWr3VxZPXAuq">
    <mxGraphModel dx="1634" dy="804" grid="1" gridSize="10" guides="1" tooltips="1" connect="1" arrows="1" fold="1" page="1" pageScale="1" pageWidth="850" pageHeight="1100" math="0" shadow="0">
      <root>
        <mxCell id="0" />
        <mxCell id="1" parent="0" />
        <mxCell id="X7wFySDxtmyE68nUG0qp-1" value="&lt;font style=&quot;font-size: 24px;&quot;&gt;Banking System&lt;/font&gt;" style="ellipse;whiteSpace=wrap;html=1;" vertex="1" parent="1">
          <mxGeometry x="270" y="80" width="310" height="170" as="geometry" />
        </mxCell>
        <mxCell id="X7wFySDxtmyE68nUG0qp-2" value="" style="endArrow=classic;html=1;rounded=0;" edge="1" parent="1" source="X7wFySDxtmyE68nUG0qp-1">
          <mxGeometry width="50" height="50" relative="1" as="geometry">
            <mxPoint x="270" y="290" as="sourcePoint" />
            <mxPoint x="200" y="310" as="targetPoint" />
          </mxGeometry>
        </mxCell>
        <mxCell id="X7wFySDxtmyE68nUG0qp-3" value="" style="endArrow=classic;html=1;rounded=0;" edge="1" parent="1">
          <mxGeometry width="50" height="50" relative="1" as="geometry">
            <mxPoint x="425" y="250" as="sourcePoint" />
            <mxPoint x="425" y="390" as="targetPoint" />
          </mxGeometry>
        </mxCell>
        <mxCell id="X7wFySDxtmyE68nUG0qp-4" value="" style="endArrow=classic;html=1;rounded=0;" edge="1" parent="1">
          <mxGeometry width="50" height="50" relative="1" as="geometry">
            <mxPoint x="540" y="220" as="sourcePoint" />
            <mxPoint x="640" y="320" as="targetPoint" />
          </mxGeometry>
        </mxCell>
        <mxCell id="X7wFySDxtmyE68nUG0qp-5" value="Account Number" style="rhombus;whiteSpace=wrap;html=1;" vertex="1" parent="1">
          <mxGeometry x="40" y="340" width="180" height="170" as="geometry" />
        </mxCell>
        <mxCell id="X7wFySDxtmyE68nUG0qp-6" value="Deposit" style="rhombus;whiteSpace=wrap;html=1;" vertex="1" parent="1">
          <mxGeometry x="335" y="410" width="180" height="170" as="geometry" />
        </mxCell>
        <mxCell id="X7wFySDxtmyE68nUG0qp-7" value="Withdrawal" style="rhombus;whiteSpace=wrap;html=1;" vertex="1" parent="1">
          <mxGeometry x="630" y="340" width="180" height="170" as="geometry" />
        </mxCell>
      </root>
    </mxGraphModel>
  </diagram>
</mxfile>
